<svg height="76" viewBox="0 0 67 76" width="67" xmlns="http://www.w3.org/2000/svg" xmlns:xlink="http://www.w3.org/1999/xlink"><filter id="a"><feColorMatrix in="SourceGraphic" type="matrix" values="0 0 0 0 0.400000 0 0 0 0 0.847059 0 0 0 0 0.415686 0 0 0 1.000000 0"/></filter><g fill="none" fill-rule="evenodd" filter="url(#a)" transform="translate(-584 -381)"><path d="m69.0001608 43.3594356c.0123184-1.144175-.3635139-1.5228194-1.4341987-1.3662226-.8516922.1241139-1.1255544-.2579242-1.0983624-1.0961779.0534128-1.6493574-.0427303-3.3045327.0354467-4.9514661.0495283-1.0443022-.2529827-1.5281525-1.3450327-1.3560414-.9920223.1556272-1.2775383-.3422829-1.2168418-1.2566533.0558407-.8421322-.0437015-1.6949305.0242785-2.5351235.0738069-.9143704-.2772612-1.2707131-1.1697414-1.1315697-1.1153574.1745351-1.4732235-.4116122-1.3202685-1.3919181.1422724-.9148553-.2879438-1.1664768-1.0837953-1.0544834-1.0837953.1517486-1.5062424-.325799-1.326581-1.3657378.1806326-1.0443022-.3806879-1.2624711-1.2440338-1.1456295-.9565756.1294469-1.3712535-.2681055-1.2202408-1.2193222.1592674-1.0055166-.2476414-1.4166439-1.2576299-1.2585926-.9235567.1444764-1.4081569-.2191386-1.2362646-1.1892633.2078245-1.1703554-.4054521-1.3608896-1.3717391-1.2585926-.526845.0557543-1.0260123.0601177-1.119242-.724321-.2053967-1.7385643-.2403579-1.7337161-2.0287172-1.7162626-.4850858.005333-.9755129-.0460579-1.4518584.0159991-1.1172997.1459308-1.5839338-.3001036-1.4207818-1.4117957.125763-.8639492-.2976552-1.1204189-1.1114728-1.1010261-1.6130681.0378159-3.2295352-.0397553-4.8406609.0266651-1.0425218.0426641-1.632491-.1963521-1.4542863-1.3778583.1311043-.8726759-.2350165-1.176658-1.156631-1.1616286-3.3480145.0547846-6.6974858-.0014545-10.0455003.0339374-.8308126.0087267-1.122641-.228835-1.1046749-1.0927842.0529273-2.57633318-.0111681-5.15460566.0364179-7.73093886.0155383-.85231347-.2592951-1.19605081-1.1071027-1.07630029-1.0298969.14593081-1.6446302-.15902094-1.4484594-1.34682981.159753-.96915507-.3816591-1.08939042-1.2066448-1.1179948-.9420085-.03248293-1.1100162.40530948-1.0085318 1.16065896.1296476.96527651-.2087956 1.47239818-1.2513174 1.29883263-.9895944-.16435396-1.4319499.18907978-1.2513174 1.22901857.1714067.98757823-.2592951 1.448642-1.2687979 1.2881666-1.0566033-.16823252-1.3736814.32919274-1.2226687 1.2905907.1514982.96721579-.2952274 1.34489053-1.2284956 1.20235347-.9342393-.14302189-1.3639699.19586726-1.2051881 1.17374909.163152 1.00260765-.2830881 1.43361254-1.2794805 1.26441042-.9968781-.16920216-1.3144417.28943752-1.1716837 1.20526242.1641231 1.0496352-.3554383 1.3836761-1.3120139 1.2353212-.8735428-.1357496-1.31541279.1532031-1.15808766 1.0956931.18257486 1.0952082-.25492497 1.5848764-1.38339282 1.4074323-.82547131-.1299318-1.03815157.2249564-1.13235242 1.0535137-.08157598.7107461.37923124 1.1747188.66231934 1.8224382l-.42584608-.0858131c-.33213081-.4106425-.81867332-.4940315-1.26297112-.2550153-.6443532.3466463-.05292728.8232243.08448942 1.2299882.023793.0707837.05826856.1376889.08885956.2065333-.00242786.3422829-.06021085.6200847-.23890111.6535373-.89879259.166778-1.30424468-.869767-3.50679638.3747658-.49236937.1871405-.31610696.7073523-.2850304 1.0675735.08303271.9584891-.20491111 1.4646411-1.26297111 1.3177406-.75991918-.1056907-1.29744668-.0271499-1.25277412 1.025879.03787457.8935232.20296883 1.3967663 1.20664484 1.2474418.99347901-.1478701 1.43632009.2748929 1.29793225 1.2799246-.11945055.8658885.19762755 1.322104 1.13138128 1.1742339 1.08282414-.1711414 1.4921608.3136786 1.3445471 1.354587-.13353212.9390962.33698653 1.2309578 1.19596227 1.1150859.90073488-.121205 1.41495495.1852012 1.26734126 1.1810213-.14615698.9836997.2272474 1.4384608 1.25374526 1.2755613.96920044-.1536879 1.36396994.2991339 1.21489955 1.2290186-.15926741.9948505.33892879 1.2949541 1.21975529 1.2110802 1.0245555-.0979336 1.3940754.3917345 1.2542308 1.354587-.1296476.8915838.2321031 1.303196 1.143035 1.1611437 1.1163286-.1745351 1.4533151.3674936 1.3071581 1.3797976-.1170227.8130431.1845171 1.2401694 1.05806 1.0942386 1.1425494-.1915039 1.5475159.3291928 1.3765948 1.4059779-.1403301.8843116.2942563 1.1689009 1.0959346 1.0409084 1.1289534-.180353 1.5543139.3161026 1.4110704 1.4011296-.1170227.8823723.3432989 1.1601742 1.1367225 1.0452718 1.0896222-.1585361 1.4756514.3379196 1.3421193 1.3715557-.1058546.8178912.2423001 1.1432054 1.0939922 1.1325394.8021639-.0101812 1.2488896-.223502 1.1265256-1.0956931-.1568395-1.1170252.329703-1.5742104 1.43195-1.4045234.9551188.1478701 1.1410927-.3321017 1.1245832-1.1839303-.0471004-2.4148882.047586-4.8346245-.0446725-7.2466038-.0461293-1.2067168.3826302-1.4976088 1.5178961-1.4597928 2.3778429.0790256 4.7619983.0756319 7.1403268.0009696 1.1129296-.034907 1.5834483.3136785 1.4096137 1.429734-.1286764.8256484.2034544 1.1398117 1.0638869 1.1092681 1.6116113-.0572088 3.2309918.0479972 4.8406609-.0383008 1.1338091-.0606025 1.6863893.2627724 1.5251796 1.4612473-.1014844.7572888.1976276 1.1034502 1.0182432 1.0452718.8827687-.0625417 1.779619.0494517 2.6609311-.0271499 1.0604878-.0911461 1.4188395.3956131 1.2556875 1.3419816-.1670365.9657614.2690065 1.249381 1.1318668 1.1179948 1.1143863-.1701718 1.4499161.3670087 1.3120139 1.3783431-.1005133.7354719.1369311 1.190233.976484 1.0666039 1.1512897-.1692021 1.6499715.2816804 1.4955598 1.4627018-.0631243.4833655-.0412736.9303695.6783432 1.0249094 1.7737922.2327136 1.769422.2671358 1.7611673 2.0192751-.0024278.5236055.0519561 1.0539985-.0145671 1.5688773-.1442147 1.1170252.3063955 1.5451212 1.4062146 1.3667074.8550912-.1391433 1.1071027.2458038 1.0799107 1.0898753-.0577829 1.769108.0174806 3.5420945-.0155382 5.312657-.0150528.783469.2651219 1.147084 1.0556321 1.0234549 1.1813951-.1842316 1.6184094.3291927 1.4484594 1.4709437-.1238207.8338903.3331019 1.0855119 1.0701993.9725488 1.1289534-.1740504 1.5635398.3107696 1.3979599 1.4064627-.1330465.8794634.3049388 1.0816333 1.1119584 1.066119.7608904-.0140597 1.2838507-.1202353 1.1614867-1.0399388-.1379022-1.0346057.1718923-1.6416003 1.3586287-1.4316733.9128742.1609603 1.146434-.2390162 1.1406071-1.1344786-.0364178-5.6777264-.0451581-11.3559377.0192438-17.0336641" fill="#66d86a" transform="matrix(0 -1 -1 0 649.5 450.5)"/></g></svg>