<?xml version="1.0" ?><svg viewBox="0 0 64 64" xmlns="http://www.w3.org/2000/svg"><g data-name="23-super star" id="_23-super_star"><rect height="4" width="4" x="32"/><rect height="4" width="4" x="36"/><rect height="4" width="4" x="28"/><rect height="4" width="4" x="24"/><rect height="4" width="4" x="20" y="4"/><rect height="4" width="4" x="16" y="4"/><rect height="4" width="4" x="44" y="4"/><rect height="4" width="4" x="40" y="4"/><rect height="4" width="4" x="32" y="60"/><rect height="4" width="4" x="36" y="60"/><rect height="4" width="4" x="28" y="60"/><rect height="4" width="4" x="24" y="60"/><rect height="4" width="4" x="20" y="56"/><rect height="4" width="4" x="16" y="56"/><rect height="4" width="4" x="44" y="56"/><rect height="4" width="4" x="40" y="56"/><rect height="4" transform="translate(96 -28) rotate(90)" width="4" x="60" y="32"/><rect height="4" transform="translate(100 -24) rotate(90)" width="4" x="60" y="36"/><rect height="4" transform="translate(92 -32) rotate(90)" width="4" x="60" y="28"/><rect height="4" transform="translate(88 -36) rotate(90)" width="4" x="60" y="24"/><rect height="4" transform="translate(80 -36) rotate(90)" width="4" x="56" y="20"/><rect height="4" transform="translate(76 -40) rotate(90)" width="4" x="56" y="16"/><rect height="4" transform="translate(104 -12) rotate(90)" width="4" x="56" y="44"/><rect height="4" transform="translate(100 -16) rotate(90)" width="4" x="56" y="40"/><rect height="4" transform="translate(36 32) rotate(90)" width="4" y="32"/><rect height="4" transform="translate(40 36) rotate(90)" width="4" y="36"/><rect height="4" transform="translate(32 28) rotate(90)" width="4" y="28"/><rect height="4" transform="translate(28 24) rotate(90)" width="4" y="24"/><rect height="4" transform="translate(28 16) rotate(90)" width="4" x="4" y="20"/><rect height="4" transform="translate(24 12) rotate(90)" width="4" x="4" y="16"/><rect height="4" transform="translate(52 40) rotate(90)" width="4" x="4" y="44"/><rect height="4" transform="translate(48 36) rotate(90)" width="4" x="4" y="40"/><rect height="4" width="4" x="12" y="8"/><rect height="4" width="4" x="48" y="8"/><rect height="4" width="4" x="8" y="12"/><rect height="4" width="4" x="8" y="48"/><rect height="4" width="4" x="12" y="52"/><rect height="4" width="4" x="48" y="52"/><rect height="4" width="4" x="52" y="48"/><rect height="4" width="4" x="52" y="12"/><rect height="4" width="4" x="16" y="40"/><rect height="4" width="4" x="44" y="40"/><rect height="4" width="4" x="20" y="44"/><rect height="4" width="4" x="40" y="44"/><rect height="4" width="4" x="24" y="48"/><rect height="4" width="4" x="28" y="48"/><rect height="4" width="4" x="32" y="48"/><rect height="4" width="4" x="36" y="48"/><rect height="4" width="4" x="16" y="16"/><rect height="4" width="4" x="16" y="20"/><rect height="4" width="4" x="12" y="28"/><rect height="4" width="4" x="16" y="28"/><rect height="4" width="4" x="8" y="32"/><rect height="4" width="4" x="12" y="24"/><rect height="4" width="4" x="20" y="28"/><rect height="4" width="4" x="24" y="32"/><rect height="4" width="4" x="20" y="24"/><rect height="4" width="4" x="16" y="24"/><rect height="4" width="4" x="24" y="20"/><rect height="4" width="4" x="8" y="20"/><rect height="4" width="4" x="12" y="20"/><rect height="4" width="4" x="20" y="20"/><rect height="4" width="4" x="44" y="16"/><rect height="4" width="4" x="44" y="20"/><rect height="4" width="4" x="40" y="28"/><rect height="4" width="4" x="44" y="28"/><rect height="4" width="4" x="36" y="32"/><rect height="4" width="4" x="40" y="24"/><rect height="4" width="4" x="48" y="28"/><rect height="4" width="4" x="52" y="32"/><rect height="4" width="4" x="48" y="24"/><rect height="4" width="4" x="44" y="24"/><rect height="4" width="4" x="52" y="20"/><rect height="4" width="4" x="36" y="20"/><rect height="4" width="4" x="40" y="20"/><rect height="4" width="4" x="48" y="20"/></g></svg>