<?xml version="1.0" encoding="UTF-8"?>
<svg width="43px" height="50px" viewBox="0 0 43 50" version="1.1" xmlns="http://www.w3.org/2000/svg" xmlns:xlink="http://www.w3.org/1999/xlink">
    <title>4EC765B7-1C2B-4599-BF4E-D7AC20C6568C</title>
    <defs>
        <polygon id="path-1" points="0 0 43 0 43 50 0 50"></polygon>
    </defs>
    <g id="Page-1" stroke="none" stroke-width="1" fill="none" fill-rule="evenodd">
        <g id="Homepage" transform="translate(-821.000000, -5920.000000)">
            <g id="Group-6" transform="translate(821.000000, 5920.000000)">
                <path d="M26.0212023,20.975017 C24.6206277,20.975017 23.5149109,22.2250195 23.5149109,23.7500225 C23.5149109,25.2750256 24.6449535,26.5250281 26.0212023,26.5250281 C27.4215312,26.5250281 28.5272481,25.2750256 28.5272481,23.7500225 C28.5272481,22.2250195 27.4215312,20.975017 26.0212023,20.975017 M17.0526104,20.975017 C15.6520358,20.975017 14.546319,22.2250195 14.546319,23.7500225 C14.546319,25.2750256 15.6763615,26.5250281 17.0526104,26.5250281 C18.453185,26.5250281 19.5589018,25.2750256 19.5589018,23.7500225 C19.5834733,22.2250195 18.453185,20.975017 17.0526104,20.975017" id="Fill-1" fill="#330366"></path>
                <g id="Group-5">
                    <mask id="mask-2" fill="white">
                        <use xlink:href="#path-1"></use>
                    </mask>
                    <g id="Clip-4"></g>
                    <path d="M28.4783508,32.6499653 C28.4783508,32.6499653 27.5935316,31.5749631 26.8563871,30.6249612 C30.0754973,29.6999594 31.3040716,27.6499553 31.3040716,27.6499553 C30.296395,28.3249566 29.3383528,28.8002076 28.4783508,29.1249582 C27.2497766,29.6499593 26.0700996,29.99996 24.9154855,30.1999604 C22.5563773,30.6499613 20.3943323,30.524961 18.551471,30.1752104 C17.1506506,29.8999598 15.9468936,29.499959 14.939217,29.1002082 C14.3743186,28.8749577 13.7600315,28.6002072 13.1457443,28.2499565 C13.0720299,28.1999564 12.9983154,28.1752064 12.924601,28.1249562 C12.875458,28.1002062 12.8506408,28.0749561 12.826315,28.0502061 C12.3840283,27.8002056 12.1383135,27.6249552 12.1383135,27.6249552 C12.1383135,27.6249552 13.3177447,29.6249592 16.4383233,30.5749611 C15.7011787,31.524963 14.7920338,32.6499653 14.7920338,32.6499653 C9.36173568,32.475215 7.29773097,28.8502077 7.29773097,28.8502077 C7.29773097,20.8001916 10.8360248,14.2749285 10.8360248,14.2749285 C14.3743186,11.5749231 17.740612,11.6497155 17.740612,11.6497155 L17.9863268,11.9499239 C13.5634596,13.2499265 11.5240263,15.2249304 11.5240263,15.2249304 C11.5240263,15.2249304 12.064599,14.9251799 12.9734982,14.499929 C15.6028928,13.3249266 17.691469,12.999926 18.551471,12.9251759 C18.6988999,12.8999258 18.8217573,12.8749257 18.9691862,12.8749257 C20.4678011,12.6751754 22.1634792,12.6249252 23.9326261,12.8249256 C26.2669172,13.0999262 28.7729629,13.8001776 31.328643,15.2249304 C31.328643,15.2249304 29.38725,13.3499267 25.2100976,12.0501741 L25.5543441,11.6497155 C25.5543441,11.6497155 28.9206375,11.5749231 32.4586856,14.2749285 C32.4586856,14.2749285 35.9972251,20.8001916 35.9972251,28.8502077 C35.9972251,28.8502077 33.9086489,32.475215 28.4783508,32.6499653 M37.9629439,-0.0001000002 L5.03715437,-0.0001000002 C2.2605766,-0.0001000002 0,2.3001546 0,5.1499103 L0,38.9499779 C0,41.8002336 2.2605766,44.1002382 5.03715437,44.1002382 L32.9012181,44.1002382 L31.5986837,39.475229 L34.7440794,42.4499849 L37.7172291,45.2499905 L43.0000983,50 L43.0000983,5.1499103 C43.0000983,2.3001546 40.739276,-0.0001000002 37.9629439,-0.0001000002" id="Fill-3" fill="#330366" mask="url(#mask-2)"></path>
                </g>
            </g>
        </g>
    </g>
</svg>