<?xml version="1.0" encoding="UTF-8"?>
<svg width="67px" height="76px" viewBox="0 0 67 76" version="1.1" xmlns="http://www.w3.org/2000/svg" xmlns:xlink="http://www.w3.org/1999/xlink">
    <title>B3189ADD-5D88-47B7-8B8A-DA3F332AA2F4</title>
    <defs>
        <filter id="filter-1">
            <feColorMatrix in="SourceGraphic" type="matrix" values="0 0 0 0 0.400000 0 0 0 0 0.847059 0 0 0 0 0.415686 0 0 0 1.000000 0"></feColorMatrix>
        </filter>
        <filter x="-664.5%" y="-716.4%" width="1429.0%" height="1532.8%" filterUnits="objectBoundingBox" id="filter-2">
            <feOffset dx="0" dy="4.5" in="SourceAlpha" result="shadowOffsetOuter1"></feOffset>
            <feGaussianBlur stdDeviation="0.5" in="shadowOffsetOuter1" result="shadowBlurOuter1"></feGaussianBlur>
            <feColorMatrix values="0 0 0 0 0   0 0 0 0 0   0 0 0 0 0  0 0 0 0.06 0" type="matrix" in="shadowBlurOuter1" result="shadowMatrixOuter1"></feColorMatrix>
            <feOffset dx="0" dy="10.3" in="SourceAlpha" result="shadowOffsetOuter2"></feOffset>
            <feGaussianBlur stdDeviation="3.45" in="shadowOffsetOuter2" result="shadowBlurOuter2"></feGaussianBlur>
            <feColorMatrix values="0 0 0 0 0   0 0 0 0 0   0 0 0 0 0  0 0 0 0.08 0" type="matrix" in="shadowBlurOuter2" result="shadowMatrixOuter2"></feColorMatrix>
            <feOffset dx="0" dy="18.7" in="SourceAlpha" result="shadowOffsetOuter3"></feOffset>
            <feGaussianBlur stdDeviation="7.1" in="shadowOffsetOuter3" result="shadowBlurOuter3"></feGaussianBlur>
            <feColorMatrix values="0 0 0 0 0   0 0 0 0 0   0 0 0 0 0  0 0 0 0.1 0" type="matrix" in="shadowBlurOuter3" result="shadowMatrixOuter3"></feColorMatrix>
            <feOffset dx="0" dy="33.2" in="SourceAlpha" result="shadowOffsetOuter4"></feOffset>
            <feGaussianBlur stdDeviation="14.6" in="shadowOffsetOuter4" result="shadowBlurOuter4"></feGaussianBlur>
            <feColorMatrix values="0 0 0 0 0   0 0 0 0 0   0 0 0 0 0  0 0 0 0.13 0" type="matrix" in="shadowBlurOuter4" result="shadowMatrixOuter4"></feColorMatrix>
            <feOffset dx="0" dy="71" in="SourceAlpha" result="shadowOffsetOuter5"></feOffset>
            <feGaussianBlur stdDeviation="40" in="shadowOffsetOuter5" result="shadowBlurOuter5"></feGaussianBlur>
            <feColorMatrix values="0 0 0 0 0   0 0 0 0 0   0 0 0 0 0  0 0 0 0.19 0" type="matrix" in="shadowBlurOuter5" result="shadowMatrixOuter5"></feColorMatrix>
            <feMerge>
                <feMergeNode in="shadowMatrixOuter1"></feMergeNode>
                <feMergeNode in="shadowMatrixOuter2"></feMergeNode>
                <feMergeNode in="shadowMatrixOuter3"></feMergeNode>
                <feMergeNode in="shadowMatrixOuter4"></feMergeNode>
                <feMergeNode in="shadowMatrixOuter5"></feMergeNode>
                <feMergeNode in="SourceGraphic"></feMergeNode>
            </feMerge>
        </filter>
    </defs>
    <g id="Page-1" stroke="none" stroke-width="1" fill="none" fill-rule="evenodd">
        <g id="Homepage" transform="translate(-584.000000, -3759.000000)">
            <g id="Group-3" transform="translate(0.000000, 3378.000000)" filter="url(#filter-1)">
                <g filter="url(#filter-2)" transform="translate(617.500000, 416.000000) scale(1, -1) rotate(90.000000) translate(-617.500000, -416.000000) translate(583.000000, 384.000000)">
                    <path d="M69.0001608,43.3594356 C69.0124792,42.2152606 68.6366469,41.8366162 67.5659621,41.993213 C66.7142699,42.1173269 66.4404077,41.7352888 66.4675997,40.8970351 C66.5210125,39.2476777 66.4248694,37.5925024 66.5030464,35.945569 C66.5525747,34.9012668 66.2500637,34.4174165 65.1580137,34.5895276 C64.1659914,34.7451548 63.8804754,34.2472447 63.9411719,33.3328743 C63.9970126,32.4907421 63.8974704,31.6379438 63.9654504,30.7977508 C64.0392573,29.8833804 63.6881892,29.5270377 62.795709,29.6661811 C61.6803516,29.8407162 61.3224855,29.2545689 61.4754405,28.274263 C61.6177129,27.3594077 61.1874967,27.1077862 60.3916452,27.2197796 C59.3078499,27.3715282 58.8854028,26.8939806 59.0650642,25.8540418 C59.2456968,24.8097396 58.6843763,24.5915707 57.8210304,24.7084123 C56.8644548,24.8378592 56.4497769,24.4403068 56.6007896,23.4890901 C56.760057,22.4835735 56.3531482,22.0724462 55.3431597,22.2304975 C54.419603,22.3749739 53.9350028,22.0113589 54.1068951,21.0412342 C54.3147196,19.8708788 53.701443,19.6803446 52.735156,19.7826416 C52.208311,19.8383959 51.7091437,19.8427593 51.615914,19.0583206 C51.4105173,17.3197563 51.3755561,17.3246045 49.5871968,17.342058 C49.102111,17.347391 48.6116839,17.2960001 48.1353384,17.3580571 C47.0180387,17.5039879 46.5514046,17.0579535 46.7145566,15.9462614 C46.8403196,15.0823122 46.4169014,14.8258425 45.6030838,14.8452353 C43.9900157,14.8830512 42.3735486,14.80548 40.7624229,14.8719004 C39.7199011,14.9145645 39.1299319,14.6755483 39.3081366,13.4940421 C39.4392409,12.6213662 39.0731201,12.3173841 38.1515056,12.3324135 C34.8034911,12.3871981 31.4540198,12.330959 28.1060053,12.3663509 C27.2751927,12.3750776 26.9833643,12.1375159 27.0013304,11.2735667 C27.0542577,8.69723352 26.9901623,6.11896104 27.0377483,3.54262784 C27.0532866,2.69031437 26.7784532,2.34657703 25.9306456,2.46632755 C24.9007487,2.61225836 24.2860154,2.30730661 24.4821862,1.11949774 C24.6419392,0.150342666 24.1005271,0.0301073187 23.2755414,0.00150294184 C22.3335329,-0.0309799946 22.1655252,0.406812418 22.2670096,1.1621619 C22.3966572,2.12743841 22.058214,2.63456008 21.0156922,2.46099453 C20.0260978,2.29664057 19.5837423,2.65007431 19.7643748,3.6900131 C19.9357815,4.67759133 19.5050797,5.1386551 18.4955769,4.9781797 C17.4389736,4.80994718 17.1218955,5.30737244 17.2729082,6.2687704 C17.4244064,7.23598619 16.9776808,7.61366093 16.0444126,7.47112387 C15.1101733,7.32810198 14.6804427,7.66699113 14.8392245,8.64487296 C15.0023765,9.64748061 14.5561364,10.0784855 13.559744,9.90928338 C12.5628659,9.74008122 12.2453023,10.1987209 12.3880603,11.1145458 C12.5521834,12.164181 12.032622,12.4982219 11.0760464,12.349867 C10.2025036,12.2141174 9.76063361,12.5030701 9.91795874,13.4455601 C10.1005336,14.5407683 9.66303377,15.0304365 8.53456592,14.8529924 C7.70909461,14.7230606 7.49641435,15.0779488 7.4022135,15.9065061 C7.32063752,16.6172522 7.78144474,17.0812249 8.06453284,17.7289443 L7.63868676,17.6431312 C7.30655595,17.2324887 6.82001344,17.1490997 6.37571564,17.3881159 C5.73136244,17.7347622 6.32278836,18.2113402 6.46020506,18.6181041 C6.48399806,18.6888878 6.51847362,18.755793 6.54906462,18.8246374 C6.54663676,19.1669203 6.48885377,19.4447221 6.31016351,19.4781747 C5.41137092,19.6449527 5.00591883,18.6084077 2.80336713,19.8529405 C2.31099776,20.040081 2.48726017,20.5602928 2.51833673,20.920514 C2.60136944,21.8790031 2.31342562,22.3851551 1.25536562,22.2382546 C0.495446437,22.1325639 -0.0420810621,22.2111047 0.00259150328,23.2641336 C0.0404660696,24.1576568 0.205560333,24.6608999 1.20923634,24.5115754 C2.20271535,24.3637053 2.64555643,24.7864683 2.50716859,25.7915 C2.38771804,26.6573885 2.70479614,27.113604 3.63854987,26.9657339 C4.72137401,26.7945925 5.13071067,27.2794125 4.98309697,28.3203209 C4.84956485,29.2594171 5.3200835,29.5512787 6.17905924,29.4354068 C7.07979412,29.3142018 7.59401419,29.620608 7.4464005,30.6164281 C7.30024352,31.6001278 7.6736479,32.0548889 8.70014576,31.8919894 C9.6693462,31.7383015 10.0641157,32.1911233 9.91504531,33.121008 C9.7557779,34.1158585 10.2539741,34.4159621 11.1348006,34.3320882 C12.1593561,34.2341546 12.528876,34.7238227 12.3890314,35.6866752 C12.2593838,36.578259 12.6211345,36.9898712 13.5320664,36.8478189 C14.648395,36.6732838 14.9853815,37.2153125 14.8392245,38.2276165 C14.7222018,39.0406596 15.0237416,39.4677859 15.8972845,39.3218551 C17.0398339,39.1303512 17.4448004,39.6510479 17.2738793,40.727833 C17.1335492,41.6121446 17.5681356,41.8967339 18.3698139,41.7687414 C19.4987673,41.5883884 19.9241278,42.084844 19.7808843,43.169871 C19.6638616,44.0522433 20.1241832,44.3300452 20.9176068,44.2151428 C22.007229,44.0566067 22.3932582,44.5530624 22.2597261,45.5866985 C22.1538715,46.4045897 22.5020262,46.7299039 23.3537183,46.7192379 C24.1558822,46.7090567 24.6026079,46.4957359 24.4802439,45.6235448 C24.3234044,44.5065196 24.8099469,44.0493344 25.9121939,44.2190214 C26.8673127,44.3668915 27.0532866,43.8869197 27.0367771,43.0350911 C26.9896767,40.6202029 27.0843631,38.2004666 26.9921046,35.7884873 C26.9459753,34.5817705 27.3747348,34.2908785 28.5100007,34.3286945 C30.8878436,34.4077201 33.271999,34.4043264 35.6503275,34.3296641 C36.7632571,34.2947571 37.2337758,34.6433426 37.0599412,35.7593981 C36.9312648,36.5850465 37.2633956,36.8992098 38.1238281,36.8686662 C39.7354394,36.8114574 41.3548199,36.9166634 42.964489,36.8303654 C44.0982981,36.7697629 44.6508783,37.0931378 44.4896686,38.2916127 C44.3881842,39.0489015 44.6872962,39.3950629 45.5079118,39.3368845 C46.3906805,39.2743428 47.2875308,39.3863362 48.1688429,39.3097346 C49.2293307,39.2185885 49.5876824,39.7053477 49.4245304,40.6517162 C49.2574939,41.6174776 49.6935369,41.9010972 50.5563972,41.769711 C51.6707835,41.5995392 52.0063133,42.1367197 51.8684111,43.1480541 C51.7678978,43.883526 52.0053422,44.3382871 52.8448951,44.214658 C53.9961848,44.0454559 54.4948666,44.4963384 54.3404549,45.6773598 C54.2773306,46.1607253 54.2991813,46.6077293 55.0187981,46.7022692 C56.7925903,46.9349828 56.7882201,46.969405 56.7799654,48.7215443 C56.7775376,49.2451498 56.8319215,49.7755428 56.7653983,50.2904216 C56.6211836,51.4074468 57.0717938,51.8355428 58.1716129,51.657129 C59.0267041,51.5179857 59.2787156,51.9029328 59.2515236,52.7470043 C59.1937407,54.5161123 59.2690042,56.2890988 59.2359854,58.0596613 C59.2209326,58.8431303 59.5011073,59.2067453 60.2916175,59.0831162 C61.4730126,58.8988846 61.9100269,59.4123089 61.7400769,60.5540599 C61.6162562,61.3879502 62.0731788,61.6395718 62.8102762,61.5266087 C63.9392296,61.3525583 64.373816,61.8373783 64.2082361,62.9330714 C64.0751896,63.8125348 64.5131749,64.0147047 65.3201945,63.9991904 C66.0810849,63.9851307 66.6040452,63.8789551 66.4816812,62.9592516 C66.343779,61.9246459 66.6535735,61.3176513 67.8403099,61.5275783 C68.7531841,61.6885386 68.9867439,61.2885621 68.980917,60.3930997 C68.9444992,54.7153733 68.9357589,49.037162 69.0001608,43.3594356" id="Fill-1" fill="#66D86A"></path>
                </g>
            </g>
        </g>
    </g>
</svg>