<?xml version="1.0" encoding="UTF-8"?>
<svg width="24px" height="24px" viewBox="0 0 24 24" version="1.1" xmlns="http://www.w3.org/2000/svg" xmlns:xlink="http://www.w3.org/1999/xlink">
    <title>832DA4C2-49F6-4949-9582-783F343A0914</title>
    <g id="[✓]-Staking" stroke="none" stroke-width="1" fill="none" fill-rule="evenodd">
        <g id="Staking-Tooltip-V1" transform="translate(-691.000000, -273.000000)" fill="#000000" fill-rule="nonzero">
            <g id="APY-Tooltip" transform="translate(424.000000, 247.000000)">
                <g id="Symbols/Icons/Action/Close-only" transform="translate(267.000000, 26.000000)">
                    <g id="Add" transform="translate(7.000000, 7.000000)">
                        <g id="Group" transform="translate(5.000000, 5.000000) scale(-1, 1) translate(-5.000000, -5.000000) ">
                            <path d="M9.27636364,0.730909091 C9.60078265,1.0553281 9.62057278,1.57097519 9.3393883,1.93069535 L9.26282398,2.01717602 L6.27563636,5.00290909 L10,8.72727273 L8.72727273,10 L5.00290909,6.27563636 L1.83535783,9.44464217 C1.47642616,9.80357384 0.900544841,9.80963575 0.549090909,9.45818182 C0.224671895,9.1337628 0.204881763,8.61811572 0.486066249,8.25839556 L0.562630561,8.17191489 L3.73018182,5.00290909 L0,1.27272727 L1.27272727,0 L5.00290909,3.73018182 L7.99009671,0.744448743 C8.34902839,0.385517068 8.9249097,0.379455159 9.27636364,0.730909091 Z" id="Path"></path>
                        </g>
                    </g>
                </g>
            </g>
        </g>
    </g>
</svg>