<?xml version="1.0" encoding="UTF-8"?>
<svg width="61px" height="49px" viewBox="0 0 61 49" version="1.1" xmlns="http://www.w3.org/2000/svg" xmlns:xlink="http://www.w3.org/1999/xlink">
    <title>ED5AAB3B-FF55-4CCD-BEB1-719DC97D4049</title>
    <g id="Page-1" stroke="none" stroke-width="1" fill="none" fill-rule="evenodd">
        <g id="Homepage" transform="translate(-330.000000, -5920.000000)" fill="#330366">
            <g id="Symbols/Icons/Social/Twitter-large" transform="translate(330.500000, 5920.000000)">
                <path d="M60,5.80053354 C57.7924219,6.78432551 55.4198437,7.44921531 52.9298438,7.74833329 C55.4716406,6.2174145 57.4232813,3.79314571 58.3425,0.904655243 C55.9638281,2.32205052 53.3294531,3.35153452 50.525625,3.9064337 C48.2800781,1.50218462 45.0808594,0 41.5403906,0 C34.741875,0 29.2303125,5.53839314 29.2303125,12.3698238 C29.2303125,13.3392487 29.3395312,14.2834723 29.5492969,15.1888341 C19.3185937,14.6730323 10.2482812,9.74818429 4.17679687,2.26434666 C3.1171875,4.09132159 2.51015625,6.21623687 2.51015625,8.48317431 C2.51015625,12.774693 4.68351563,16.561244 7.9865625,18.779192 C5.96859375,18.7151289 4.070625,18.1588166 2.41078125,17.2322574 C2.41007812,17.2838376 2.41007812,17.3356533 2.41007812,17.3877046 C2.41007812,23.3811339 6.65320313,28.3808791 12.2845312,29.5170564 C11.2514063,29.7999231 10.1639062,29.9508952 9.04125,29.9508952 C8.24789063,29.9508952 7.47679687,29.8736427 6.72539062,29.7292653 C8.29171875,34.6437502 12.8376563,38.2199764 18.2242969,38.3198395 C14.0114062,41.6376938 8.70351562,43.6154053 2.93648437,43.6154053 C1.94296875,43.6154053 0.963046875,43.5569949 0,43.4425293 C5.44757812,46.9523372 11.9182031,49 18.8697656,49 C41.5115625,49 53.893125,30.1508568 53.893125,13.804177 C53.893125,13.2678844 53.8814062,12.734418 53.8575,12.2040136 C56.2626562,10.4599438 58.3495312,8.28109303 60,5.80053354" id="Fill-1"></path>
            </g>
        </g>
    </g>
</svg>